{"title":"Humshakals (2014) - Hindi Movies - HDRip - x264 - 1CD - AAC - Co","uid":10616688,"size":694821385,"categoryP":"video","categoryS":"movies","magnet":"?xt=urn:btih:3ba65773416a946ed476a7fe6b20e9228950f130&amp;dn=Humshakals+%282014%29+-+Hindi+Movies+-+HDRip+-+x264+-+1CD+-+AAC+-+Co&amp;tr=udp%3A%2F%2Ftracker.openbittorrent.com%3A80&amp;tr=udp%3A%2F%2Fopen.demonii.com%3A1337&amp;tr=udp%3A%2F%2Ftracker.coppersurfer.tk%3A6969&amp;tr=udp%3A%2F%2Fexodus.desync.com%3A6969","seeders":6,"leechers":1,"uploader":"inovai","files":19,"time":1406126001,"description":"General\n\n\nComplete name : Humshakals (2014) - Hindi Movies - HDRip - x264 - 1CD - AAC - Cool_Candy.mp4\n\nScreenshots\n &lt;a href=&quot;\nhttp://img.primetimeshow.in/share.php?id=B706_53CFAAD7&quot; rel=&quot;nofollow&quot; target=&quot;_NEW&quot;&gt;\nhttp://img.primetimeshow.in/share.php?id=B706_53CFAAD7&lt;/a&gt;\n &lt;a href=&quot;\nhttp://img.primetimeshow.in/share.php?id=60EC_53CFAAD7&quot; rel=&quot;nofollow&quot; target=&quot;_NEW&quot;&gt;\nhttp://img.primetimeshow.in/share.php?id=60EC_53CFAAD7&lt;/a&gt;\n &lt;a href=&quot;\nhttp://img.primetimeshow.in/share.php?id=B277_53CFAAD7&quot; rel=&quot;nofollow&quot; target=&quot;_NEW&quot;&gt;\nhttp://img.primetimeshow.in/share.php?id=B277_53CFAAD7&lt;/a&gt;\n &lt;a href=&quot;\nhttp://img.primetimeshow.in/share.php?id=F189_53CFAAD7&quot; rel=&quot;nofollow&quot; target=&quot;_NEW&quot;&gt;\nhttp://img.primetimeshow.in/share.php?id=F189_53CFAAD7&lt;/a&gt;\n &lt;a href=&quot;\nhttp://img.primetimeshow.in/share.php?id=3550_53CFAAD7&quot; rel=&quot;nofollow&quot; target=&quot;_NEW&quot;&gt;\nhttp://img.primetimeshow.in/share.php?id=3550_53CFAAD7&lt;/a&gt;\n\n\n\nGeneral info:\n\nFormat : MPEG-4\nFormat profile : Base Media\nCodec ID : isom\nFile size : 660 MiB\nDuration : 2h 23mn\nOverall bit rate : 643 Kbps\nWriting application : Lavf55.19.104\n\n\nVideo\n\nID : 1\nFormat : AVC\nFormat/Info : Advanced Video Codec\nFormat profile : &lt;a class=&quot;__cf_email__&quot; href=&quot;/cdn-cgi/l/email-protection&quot; data-cfemail=&quot;5e1c3f2d3b3237303b1e126f706d&quot;&gt;[email&amp;#160;protected]&lt;/a&gt;&lt;script cf-hash='f9e31' type=&quot;text/javascript&quot;&gt;\n/* &lt;![CDATA[ */!function(){try{var t=&quot;currentScript&quot;in document?document.currentScript:function(){for(var t=document.getElementsByTagName(&quot;script&quot;),e=t.length;e--;)if(t[e].getAttribute(&quot;cf-hash&quot;))return t[e]}();if(t&amp;&amp;t.previousSibling){var e,r,n,i,c=t.previousSibling,a=c.getAttribute(&quot;data-cfemail&quot;);if(a){for(e=&quot;&quot;,r=parseInt(a.substr(0,2),16),n=2;a.length-n;n+=2)i=parseInt(a.substr(n,2),16)^r,e+=String.fromCharCode(i);e=document.createTextNode(e),c.parentNode.replaceChild(e,c)}}}catch(u){}}();/* ]]&gt; */&lt;/script&gt;\nFormat settings, CABAC : No\nFormat settings, ReFrames : 2 frames\nCodec ID : avc1\nCodec ID/Info : Advanced Video Coding\nDuration : 2h 23mn\nBit rate : 512 Kbps\nWidth : 608 pixels\nHeight : 248 pixels\nDisplay aspect ratio : 2.40:1\nOriginal display aspect ratio : 2.40:1\nFrame rate mode : Constant\nFrame rate : 23.976 fps\nColor space : YUV\nChroma subsampling : 4:2:0\nBit depth : 8 bits\nScan type : Progressive\nBits/(Pixel*Frame) : 0.142\nStream size : 524 MiB (79%)\nWriting library : x264 core 140 r2377 1ca7bb9\nEncoding settings : Cool_Candy\n\n\n\nAudio\nID : 2\nFormat : AAC\nFormat/Info : Advanced Audio Codec\nFormat profile : LC\nCodec ID : 40\nDuration : 2h 23mn\nBit rate mode : Constant\nBit rate : 128 Kbps\nChannel(s) : 2 channels\nChannel positions : Front: L R\nSampling rate : 48.0 KHz\nCompression mode : Lossy\nStream size : 131 MiB (20%)\n\n\nThanks to cool_candy\n\nSeed please after download!!","torrent":{"xt":"urn:btih:3ba65773416a946ed476a7fe6b20e9228950f130","amp;dn":"Humshakals+%282014%29+-+Hindi+Movies+-+HDRip+-+x264+-+1CD+-+AAC+-+Co","amp;tr":["udp%3A%2F%2Ftracker.openbittorrent.com%3A80","udp%3A%2F%2Fopen.demonii.com%3A1337","udp%3A%2F%2Ftracker.coppersurfer.tk%3A6969","udp%3A%2F%2Fexodus.desync.com%3A6969"],"infoHash":"3ba65773416a946ed476a7fe6b20e9228950f130","infoHashBuffer":{"type":"Buffer","data":[59,166,87,115,65,106,148,110,212,118,167,254,107,32,233,34,137,80,241,48]},"announce":[],"urlList":[]}}